<svg xmlns="http://www.w3.org/2000/svg" width="24" height="24" viewBox="0 0 24 24">
  <defs>
    <linearGradient id="bg" x1="0" y1="0" x2="0" y2="24" gradientUnits="userSpaceOnUse">
      <stop offset="0" stop-color="#35D6B8" />
      <stop offset="1" stop-color="#118E9B" />
    </linearGradient>
  </defs>
  <rect x="1" y="1" width="22" height="22" rx="5" fill="url(#bg)" />
  <rect x="1" y="1" width="22" height="10" rx="5" fill="#FFFFFF" opacity=".12" />
  <rect x="1.5" y="1.5" width="21" height="21" rx="4.5" fill="none" stroke="#FFFFFF" opacity=".10" />
  <path fill="#FFFFFF" d="M18.7 3.3c-.9-.9-2.3-.9-3.2 0l-2.2 2.2-1.1-1.1-1.8 1.8 7.4 7.4 1.8-1.8-1.1-1.1 2.2-2.2c.9-.9.9-2.3 0-3.2l-2-2zM8.9 9.2 4.3 13.8c-.2.2-.3.4-.3.7V19c0 .6.4 1 1 1h4.5c.3 0 .5-.1.7-.3l4.6-4.6-5.9-5.9zM6 15.1l3.1-3.1 2.9 2.9L8.9 18H6v-2.9z" />
</svg>
