<svg xmlns="http://www.w3.org/2000/svg" width="24" height="24" viewBox="0 0 24 24">
  <defs>
    <linearGradient id="bg" x1="0" y1="0" x2="0" y2="24" gradientUnits="userSpaceOnUse">
      <stop offset="0" stop-color="#5EB2FF" />
      <stop offset="1" stop-color="#2E74FF" />
    </linearGradient>
  </defs>
  <rect x="1" y="1" width="22" height="22" rx="5" fill="url(#bg)" />
  <rect x="1" y="1" width="22" height="8" rx="5" fill="#FFFFFF" opacity="0.12" />
  <rect x="1" y="1" width="22" height="22" rx="5" fill="none" stroke="#FFFFFF" stroke-opacity="0.10" />
  <path fill="#FFFFFF" d="M20 6h-8l-2-2H4c-1.1 0-1.99.9-1.99 2L2 18c0 1.1.9 2 2 2h16c1.1 0 2-.9 2-2V8c0-1.1-.9-2-2-2zm0 12H4V8h16v10z" />
</svg>
