<svg xmlns="http://www.w3.org/2000/svg" width="24" height="24" viewBox="0 0 24 24">
  <defs>
    <linearGradient id="bg" x1="0" y1="0" x2="0" y2="24" gradientUnits="userSpaceOnUse">
      <stop offset="0" stop-color="#C86BFF" />
      <stop offset="1" stop-color="#8A3FD6" />
    </linearGradient>
  </defs>
  <rect x="1" y="1" width="22" height="22" rx="5" fill="url(#bg)" />
  <rect x="1" y="1" width="22" height="8" rx="5" fill="#FFFFFF" opacity="0.12" />
  <rect x="1" y="1" width="22" height="22" rx="5" fill="none" stroke="#FFFFFF" stroke-opacity="0.10" />
  <path fill="#FFFFFF" d="M21 19V5c0-1.1-.9-2-2-2H5c-1.1 0-2 .9-2 2v14c0 1.1.9 2 2 2h14c1.1 0 2-.9 2-2zM8.5 13.5l2.5 3.01L14.5 12l4.5 6H5l3.5-4.5z" />
</svg>
