<svg xmlns="http://www.w3.org/2000/svg" width="24" height="24" viewBox="0 0 24 24">
  <defs>
    <linearGradient id="bg" x1="0" y1="0" x2="0" y2="24" gradientUnits="userSpaceOnUse">
      <stop offset="0" stop-color="#7FA0B8" />
      <stop offset="1" stop-color="#4E6B80" />
    </linearGradient>
  </defs>
  <rect x="1" y="1" width="22" height="22" rx="5" fill="url(#bg)" />
  <rect x="1" y="1" width="22" height="8" rx="5" fill="#FFFFFF" opacity="0.12" />
  <rect x="1" y="1" width="22" height="22" rx="5" fill="none" stroke="#FFFFFF" stroke-opacity="0.10" />
  <path fill="#FFFFFF" d="M19 8H5c-1.66 0-3 1.34-3 3v6h4v4h12v-4h4v-6c0-1.66-1.34-3-3-3zm-3 11H8v-5h8v5zm3-7c-.55 0-1-.45-1-1s.45-1 1-1s1 .45 1 1s-.45 1-1 1zm-1-9H6v4h12V3z" />
</svg>
