<svg xmlns="http://www.w3.org/2000/svg" width="24" height="24" viewBox="0 0 24 24">
  <defs>
    <linearGradient id="bg" x1="0" y1="0" x2="0" y2="24" gradientUnits="userSpaceOnUse">
      <stop offset="0" stop-color="#FF6AA2" />
      <stop offset="1" stop-color="#C93872" />
    </linearGradient>
  </defs>
  <rect x="1" y="1" width="22" height="22" rx="5" fill="url(#bg)" />
  <rect x="1" y="1" width="22" height="10" rx="5" fill="#FFFFFF" opacity=".12" />
  <rect x="1.5" y="1.5" width="21" height="21" rx="4.5" fill="none" stroke="#FFFFFF" opacity=".10" />
  <path fill="#FFFFFF" d="M5 5h10v2H7v8H5V5zm4 4h10v10H9V9zm2 2v6h6v-6h-6zM9 3h2v2H9V3zm4 0h2v2h-2V3zm4 4h2v2h-2V7zm0 10h2v2h-2v-2zm-8 2h2v2H9v-2z" />
</svg>
