<svg xmlns="http://www.w3.org/2000/svg" width="24" height="24" viewBox="0 0 24 24">
  <defs>
    <linearGradient id="bg" x1="0" y1="0" x2="0" y2="24" gradientUnits="userSpaceOnUse">
      <stop offset="0" stop-color="#49D7FF" />
      <stop offset="1" stop-color="#139CDA" />
    </linearGradient>
  </defs>
  <rect x="1" y="1" width="22" height="22" rx="5" fill="url(#bg)" />
  <rect x="1" y="1" width="22" height="8" rx="5" fill="#FFFFFF" opacity="0.12" />
  <rect x="1" y="1" width="22" height="22" rx="5" fill="none" stroke="#FFFFFF" stroke-opacity="0.10" />
  <path fill="#FFFFFF" d="M15.5 14h-.79l-.28-.27A6.471 6.471 0 0 0 16 9.5A6.5 6.5 0 1 0 9.5 16c1.61 0 3.09-.59 4.23-1.57l.27.28v.79l5 4.99L20.49 19l-4.99-5zm-6 0C7.01 14 5 11.99 5 9.5S7.01 5 9.5 5S14 7.01 14 9.5S11.99 14 9.5 14z" />
</svg>
